<mxfile host="app.diagrams.net" modified="2022-07-19T07:48:44.195Z" agent="5.0 (Windows NT 6.1; Win64; x64) AppleWebKit/537.36 (KHTML, like Gecko) Chrome/103.0.0.0 Safari/537.36" etag="zG5UtioONu7A1ciNYtbj" version="20.1.1" type="github">
  <diagram id="ENKg4sMpYyLe6CqvI0Q1" name="Page-2">
    <mxGraphModel dx="1566" dy="1096" grid="0" gridSize="10" guides="1" tooltips="1" connect="1" arrows="1" fold="1" page="0" pageScale="1" pageWidth="850" pageHeight="1100" math="0" shadow="0">
      <root>
        <mxCell id="0" />
        <mxCell id="1" parent="0" />
        <mxCell id="kKK-9EgUeei59JqBfIfj-16" value="SISTEM INFOMASI MANAJEMEN SURAT" style="swimlane;fontStyle=1;align=center;horizontal=1;startSize=30;collapsible=0;html=1;" parent="1" vertex="1">
          <mxGeometry x="194" y="-50" width="603" height="740" as="geometry" />
        </mxCell>
        <mxCell id="kKK-9EgUeei59JqBfIfj-40" value="&lt;div&gt;KELOLA &lt;br&gt;&lt;/div&gt;&lt;div&gt;SURAT MASUK&lt;/div&gt;" style="ellipse;whiteSpace=wrap;html=1;fillColor=none;strokeColor=default;" parent="kKK-9EgUeei59JqBfIfj-16" vertex="1">
          <mxGeometry x="125" y="138" width="140" height="70" as="geometry" />
        </mxCell>
        <mxCell id="kKK-9EgUeei59JqBfIfj-41" value="&lt;div&gt;KELOLA&lt;/div&gt;&lt;div&gt;SURAT KELUAR&lt;/div&gt;" style="ellipse;whiteSpace=wrap;html=1;fillColor=none;strokeColor=default;" parent="kKK-9EgUeei59JqBfIfj-16" vertex="1">
          <mxGeometry x="123" y="242" width="140" height="70" as="geometry" />
        </mxCell>
        <mxCell id="kKK-9EgUeei59JqBfIfj-30" value="DISPOSISI SURAT MASUK" style="ellipse;whiteSpace=wrap;html=1;fillColor=none;strokeColor=default;" parent="kKK-9EgUeei59JqBfIfj-16" vertex="1">
          <mxGeometry x="125" y="353" width="140" height="70" as="geometry" />
        </mxCell>
        <mxCell id="kKK-9EgUeei59JqBfIfj-52" value="KELOLA HAK AKSES" style="ellipse;whiteSpace=wrap;html=1;fillColor=none;strokeColor=default;" parent="kKK-9EgUeei59JqBfIfj-16" vertex="1">
          <mxGeometry x="125" y="474" width="140" height="70" as="geometry" />
        </mxCell>
        <mxCell id="kKK-9EgUeei59JqBfIfj-53" value="KELOLA USER" style="ellipse;whiteSpace=wrap;html=1;fillColor=none;strokeColor=default;" parent="kKK-9EgUeei59JqBfIfj-16" vertex="1">
          <mxGeometry x="125" y="595" width="140" height="70" as="geometry" />
        </mxCell>
        <mxCell id="kKK-9EgUeei59JqBfIfj-34" value="LOGIN" style="ellipse;whiteSpace=wrap;html=1;fillColor=none;strokeColor=default;" parent="kKK-9EgUeei59JqBfIfj-16" vertex="1">
          <mxGeometry x="433" y="353" width="140" height="70" as="geometry" />
        </mxCell>
        <mxCell id="kKK-9EgUeei59JqBfIfj-36" value="&amp;lt;&amp;lt;include&amp;gt;&amp;gt;" style="edgeStyle=none;html=1;endArrow=open;verticalAlign=bottom;dashed=1;labelBackgroundColor=none;rounded=0;exitX=1.021;exitY=0.643;exitDx=0;exitDy=0;exitPerimeter=0;entryX=0;entryY=0;entryDx=0;entryDy=0;" parent="kKK-9EgUeei59JqBfIfj-16" target="kKK-9EgUeei59JqBfIfj-34" edge="1">
          <mxGeometry width="160" relative="1" as="geometry">
            <mxPoint x="267.94000000000005" y="270.01" as="sourcePoint" />
            <mxPoint x="459" y="315" as="targetPoint" />
          </mxGeometry>
        </mxCell>
        <mxCell id="kKK-9EgUeei59JqBfIfj-35" value="&amp;lt;&amp;lt;include&amp;gt;&amp;gt;" style="edgeStyle=none;html=1;endArrow=open;verticalAlign=bottom;dashed=1;labelBackgroundColor=none;rounded=0;exitX=1;exitY=0.5;exitDx=0;exitDy=0;entryX=0;entryY=0.5;entryDx=0;entryDy=0;" parent="kKK-9EgUeei59JqBfIfj-16" source="kKK-9EgUeei59JqBfIfj-30" target="kKK-9EgUeei59JqBfIfj-34" edge="1">
          <mxGeometry width="160" relative="1" as="geometry">
            <mxPoint x="159" y="527" as="sourcePoint" />
            <mxPoint x="319" y="527" as="targetPoint" />
          </mxGeometry>
        </mxCell>
        <mxCell id="kKK-9EgUeei59JqBfIfj-46" value="&amp;lt;&amp;lt;include&amp;gt;&amp;gt;" style="edgeStyle=none;html=1;endArrow=open;verticalAlign=bottom;dashed=1;labelBackgroundColor=none;rounded=0;entryX=0;entryY=1;entryDx=0;entryDy=0;exitX=1;exitY=0.5;exitDx=0;exitDy=0;" parent="kKK-9EgUeei59JqBfIfj-16" source="kKK-9EgUeei59JqBfIfj-52" target="kKK-9EgUeei59JqBfIfj-34" edge="1">
          <mxGeometry width="160" relative="1" as="geometry">
            <mxPoint x="276" y="453" as="sourcePoint" />
            <mxPoint x="474" y="473" as="targetPoint" />
          </mxGeometry>
        </mxCell>
        <mxCell id="KPNC4NThqTOK_JKKGGno-3" value="&amp;lt;&amp;lt;include&amp;gt;&amp;gt;" style="edgeStyle=none;html=1;endArrow=open;verticalAlign=bottom;dashed=1;labelBackgroundColor=none;rounded=0;exitX=1;exitY=0.5;exitDx=0;exitDy=0;entryX=0.5;entryY=0;entryDx=0;entryDy=0;" edge="1" parent="kKK-9EgUeei59JqBfIfj-16" source="kKK-9EgUeei59JqBfIfj-40" target="kKK-9EgUeei59JqBfIfj-34">
          <mxGeometry width="160" relative="1" as="geometry">
            <mxPoint x="297" y="167" as="sourcePoint" />
            <mxPoint x="457" y="167" as="targetPoint" />
          </mxGeometry>
        </mxCell>
        <mxCell id="KPNC4NThqTOK_JKKGGno-5" value="&amp;lt;&amp;lt;include&amp;gt;&amp;gt;" style="edgeStyle=none;html=1;endArrow=open;verticalAlign=bottom;dashed=1;labelBackgroundColor=none;rounded=0;exitX=1;exitY=0.5;exitDx=0;exitDy=0;entryX=0.5;entryY=1;entryDx=0;entryDy=0;" edge="1" parent="kKK-9EgUeei59JqBfIfj-16" source="kKK-9EgUeei59JqBfIfj-53" target="kKK-9EgUeei59JqBfIfj-34">
          <mxGeometry width="160" relative="1" as="geometry">
            <mxPoint x="355" y="570" as="sourcePoint" />
            <mxPoint x="515" y="570" as="targetPoint" />
          </mxGeometry>
        </mxCell>
        <mxCell id="kKK-9EgUeei59JqBfIfj-28" value="SEKRETARIAT" style="shape=umlActor;html=1;verticalLabelPosition=bottom;verticalAlign=top;align=center;" parent="1" vertex="1">
          <mxGeometry x="35" y="140" width="30" height="60" as="geometry" />
        </mxCell>
        <mxCell id="kKK-9EgUeei59JqBfIfj-31" value="PIMPINAN" style="shape=umlActor;html=1;verticalLabelPosition=bottom;verticalAlign=top;align=center;" parent="1" vertex="1">
          <mxGeometry x="35" y="308" width="30" height="60" as="geometry" />
        </mxCell>
        <mxCell id="kKK-9EgUeei59JqBfIfj-32" value="" style="edgeStyle=none;html=1;endArrow=none;verticalAlign=bottom;rounded=0;entryX=0;entryY=0.5;entryDx=0;entryDy=0;exitX=0.5;exitY=0.5;exitDx=0;exitDy=0;exitPerimeter=0;" parent="1" source="kKK-9EgUeei59JqBfIfj-28" target="kKK-9EgUeei59JqBfIfj-41" edge="1">
          <mxGeometry width="160" relative="1" as="geometry">
            <mxPoint x="154" y="224" as="sourcePoint" />
            <mxPoint x="319" y="210" as="targetPoint" />
          </mxGeometry>
        </mxCell>
        <mxCell id="kKK-9EgUeei59JqBfIfj-33" value="" style="edgeStyle=none;html=1;endArrow=none;verticalAlign=bottom;rounded=0;entryX=0;entryY=0.5;entryDx=0;entryDy=0;exitX=0.5;exitY=0.5;exitDx=0;exitDy=0;exitPerimeter=0;" parent="1" source="kKK-9EgUeei59JqBfIfj-31" target="kKK-9EgUeei59JqBfIfj-30" edge="1">
          <mxGeometry width="160" relative="1" as="geometry">
            <mxPoint x="169" y="471" as="sourcePoint" />
            <mxPoint x="329" y="471" as="targetPoint" />
          </mxGeometry>
        </mxCell>
        <mxCell id="kKK-9EgUeei59JqBfIfj-43" value="ADMIN" style="shape=umlActor;html=1;verticalLabelPosition=bottom;verticalAlign=top;align=center;" parent="1" vertex="1">
          <mxGeometry x="35" y="476" width="30" height="60" as="geometry" />
        </mxCell>
        <mxCell id="kKK-9EgUeei59JqBfIfj-45" value="" style="edgeStyle=none;html=1;endArrow=none;verticalAlign=bottom;rounded=0;exitX=0.5;exitY=0.5;exitDx=0;exitDy=0;exitPerimeter=0;entryX=0;entryY=0.5;entryDx=0;entryDy=0;" parent="1" source="kKK-9EgUeei59JqBfIfj-43" target="kKK-9EgUeei59JqBfIfj-52" edge="1">
          <mxGeometry width="160" relative="1" as="geometry">
            <mxPoint x="83" y="501" as="sourcePoint" />
            <mxPoint x="279" y="425" as="targetPoint" />
          </mxGeometry>
        </mxCell>
        <mxCell id="KPNC4NThqTOK_JKKGGno-2" value="" style="endArrow=none;html=1;rounded=0;exitX=0.5;exitY=0.5;exitDx=0;exitDy=0;exitPerimeter=0;entryX=0;entryY=0.5;entryDx=0;entryDy=0;" edge="1" parent="1" source="kKK-9EgUeei59JqBfIfj-28" target="kKK-9EgUeei59JqBfIfj-40">
          <mxGeometry width="50" height="50" relative="1" as="geometry">
            <mxPoint x="98" y="191" as="sourcePoint" />
            <mxPoint x="148" y="141" as="targetPoint" />
          </mxGeometry>
        </mxCell>
        <mxCell id="KPNC4NThqTOK_JKKGGno-4" value="" style="edgeStyle=none;html=1;endArrow=none;verticalAlign=bottom;rounded=0;exitX=0.5;exitY=0.5;exitDx=0;exitDy=0;exitPerimeter=0;entryX=0;entryY=0.5;entryDx=0;entryDy=0;" edge="1" parent="1" source="kKK-9EgUeei59JqBfIfj-43" target="kKK-9EgUeei59JqBfIfj-53">
          <mxGeometry width="160" relative="1" as="geometry">
            <mxPoint x="79" y="465" as="sourcePoint" />
            <mxPoint x="239" y="465" as="targetPoint" />
          </mxGeometry>
        </mxCell>
      </root>
    </mxGraphModel>
  </diagram>
</mxfile>
